<svg width="28" height="28" viewBox="0 0 28 28" fill="none" xmlns="http://www.w3.org/2000/svg">
  <g id="icon_m_reset">
    <path id="Vector" d="M14.5 8.75448V10.3193C14.5 10.7128 15.0063 10.9051 15.2969 10.6253L17.9125 8.18623C18.1 8.01139 18.1 7.74037 17.9125 7.56553L15.2969 5.12643C15.0063 4.85542 14.5 5.04775 14.5 5.44115V7.00602C10.3562 7.00602 7 10.1358 7 13.9999C7 14.9091 7.1875 15.7833 7.53438 16.5788C7.7875 17.1646 8.59375 17.3219 9.07188 16.8761C9.325 16.64 9.42813 16.2816 9.2875 15.9669C9.01562 15.3637 8.875 14.6905 8.875 13.9999C8.875 11.1062 11.3969 8.75448 14.5 8.75448ZM19.9281 11.1236C19.675 11.3597 19.5719 11.7269 19.7125 12.0328C19.975 12.6448 20.125 13.3092 20.125 13.9999C20.125 16.8936 17.6031 19.2452 14.5 19.2452V17.6804C14.5 17.287 13.9937 17.0946 13.7031 17.3744L11.0875 19.8135C10.9 19.9883 10.9 20.2593 11.0875 20.4342L13.7031 22.8733C13.9937 23.1443 14.5 22.952 14.5 22.5673V20.9937C18.6438 20.9937 22 17.8639 22 13.9999C22 13.0907 21.8125 12.2164 21.4656 11.4209C21.2125 10.8351 20.4063 10.6778 19.9281 11.1236Z" fill="#A4A4A4"/>
  </g>
</svg>
